HIERARCHY
ROOT Hips
{
  OFFSET -32.5998 29.0326 120.673
  CHANNELS 6 Xposition Yposition Zposition Zrotation Xrotation Yrotation
  JOINT LeftUpLeg
  {
    OFFSET 8.64259 1.95398 -2.38835
    CHANNELS 3 Zrotation Xrotation Yrotation
    JOINT LeftLeg
    {
      OFFSET 43.7702 0 0
      CHANNELS 3 Zrotation Xrotation Yrotation
      JOINT LeftFoot
      {
        OFFSET 40.6238 0 0
        CHANNELS 3 Zrotation Xrotation Yrotation
        JOINT LeftToeBase
        {
          OFFSET 12.7242 0 0
          CHANNELS 3 Zrotation Xrotation Yrotation
          End Site
          {
            OFFSET 0 0 0
          }
        }
      }
    }
  }
  JOINT RightUpLeg
  {
    OFFSET -8.2249 1.95398 -2.59336
    CHANNELS 3 Zrotation Xrotation Yrotation
    JOINT RightLeg
    {
      OFFSET 43.5653 0 0
      CHANNELS 3 Zrotation Xrotation Yrotation
      JOINT RightFoot
      {
        OFFSET 40.6238 0 0
        CHANNELS 3 Zrotation Xrotation Yrotation
        JOINT RightToeBase
        {
          OFFSET 12.7242 0 0
          CHANNELS 3 Zrotation Xrotation Yrotation
          End Site
          {
            OFFSET 0 0 0
          }
        }
      }
    }
  }
  JOINT Spine
  {
    OFFSET 0.165834 0.87714 6.61349
    CHANNELS 3 Zrotation Xrotation Yrotation
    JOINT Spine1
    {
      OFFSET 7.38963 1.71661e-005 0
      CHANNELS 3 Zrotation Xrotation Yrotation
      JOINT Spine2
      {
        OFFSET 11.9445 1.14441e-005 0
        CHANNELS 3 Zrotation Xrotation Yrotation
        JOINT Spine3
        {
          OFFSET 14.7254 4.19617e-005 0
          CHANNELS 3 Zrotation Xrotation Yrotation
          JOINT Spine4
          {
            OFFSET 10.9679 0 0
            CHANNELS 3 Zrotation Xrotation Yrotation
            JOINT RightShoulder
            {
              OFFSET 2.46616 -1.6653 3.69651
              CHANNELS 3 Zrotation Xrotation Yrotation
              JOINT RightArm
              {
                OFFSET 13.0012 0 0
                CHANNELS 3 Zrotation Xrotation Yrotation
                JOINT RightForeArm
                {
                  OFFSET 28.7848 1.62311e-005 0
                  CHANNELS 3 Zrotation Xrotation Yrotation
                  JOINT RightHand
                  {
                    OFFSET 26.5688 1.62095e-005 0
                    CHANNELS 3 Zrotation Xrotation Yrotation
                    End Site
                    {
                      OFFSET 0 0 0
                    }
                  }
                }
              }
            }
            JOINT LeftShoulder
            {
              OFFSET 2.38034 -1.29275 -3.7523
              CHANNELS 3 Zrotation Xrotation Yrotation
              JOINT LeftArm
              {
                OFFSET 16.3182 6.07031e-005 0
                CHANNELS 3 Zrotation Xrotation Yrotation
                JOINT LeftForeArm
                {
                  OFFSET 27.0901 0 0
                  CHANNELS 3 Zrotation Xrotation Yrotation
                  JOINT LeftHand
                  {
                    OFFSET 24.5451 1.51738e-005 0
                    CHANNELS 3 Zrotation Xrotation Yrotation
                    End Site
                    {
                      OFFSET 0 0 0
                    }
                  }
                }
              }
            }
            JOINT Neck
            {
              OFFSET 5.0226 -0.0266342 0
              CHANNELS 3 Zrotation Xrotation Yrotation
              JOINT Head
              {
                OFFSET 6.69364 2.86102e-005 0
                CHANNELS 3 Zrotation Xrotation Yrotation
                End Site
                {
                  OFFSET 0 0 0
                }
              }
            }
          }
        }
      }
    }
  }
}
MOTION
Frames:	15
Frame Time:	0.0416667
26.2225 101.058 23.9767 -133.036 -81.9459 -133.617 -173.473 -1.79847 88.9313 -14.3663 -2.11327 -0.511989 72.145 5.89298 -2.93451 14.1384 -9.52334 5.39316 172.751 -1.62434 88.686 -14.0676 -10.6127 -0.593977 68.3912 -5.04566 1.10415 23.5539 1.02814 4.53908 0.449472 7.37789 -90.0471 12.1191 0.871242 -0.190166 0.448468 0.862027 -0.228335 -22.089 0.888112 0.0804858 -2.07637 0.888115 0.0804935 92.4702 -26.8391 -102.863 45.5879 -24.7429 -6.49087 -12.6766 -13.8448 -25.7846 -10.0464 -0.25237 -2.36312 -86.0933 -47.1407 84.1528 -24.5193 33.2572 -16.0891 5.05278 -6.27796 -10.3129 -1.11972 -0.100657 -5.29585 7.32648 -0.757523 -1.61808 -8.17601 -0.498946 1.98989 
26.3037 100.921 23.9941 -135.943 -82.7362 -136.434 -173.717 -1.48441 88.8951 -14.45 -1.0502 -0.243608 72.5605 6.15724 -2.97568 14.4757 -9.91813 6.34086 172.725 -1.7357 88.7365 -13.2416 -9.59022 -0.383435 68.1908 -4.96013 1.6257 24.5142 0.685695 4.35421 0.399868 7.36406 -90.1012 12.1468 0.747041 -0.284686 0.476041 0.733788 -0.317299 -22.0608 0.798062 -0.0469951 -2.04817 0.798056 -0.0470018 92.5241 -26.6524 -102.814 45.3057 -23.4591 -7.20026 -13.9049 -17.7069 -25.2004 -10.4932 -0.14956 -3.68109 -86.5281 -48.2484 83.6574 -23.585 32.7038 -16.7048 4.77069 -7.93892 -9.52286 1.85916 -0.10806 -4.81067 6.98573 -0.849069 -0.712889 -7.29438 -0.728084 1.07759 
26.3847 100.955 24.0642 -136.191 -82.6528 -136.922 -173.964 -1.65454 88.4594 -14.3077 -1.12355 -0.135236 71.9291 5.8308 -2.74735 15.7396 -9.5124 6.8023 172.453 -1.7422 88.385 -13.4278 -9.84281 -0.349278 68.4536 -5.13914 1.38159 24.1828 0.699578 4.78107 0.429797 7.36965 -90.051 12.1357 0.830283 -0.193336 0.464985 0.820969 -0.229697 -22.0723 0.849996 0.0651548 -2.05967 0.849992 0.0651481 92.616 -26.8653 -102.547 45.3958 -23.4357 -7.34615 -14.3624 -19.2359 -25.1421 -10.7762 -0.136614 -3.84248 -86.4542 -47.4548 83.6426 -24.6139 31.9649 -16.8136 4.9741 -7.54819 -8.85624 1.27823 -0.113211 -5.05999 6.79945 -0.911535 -1.26992 -7.16403 -0.696766 1.61363 
26.3255 100.94 24.2097 -134.415 -82.9615 -134.891 -173.834 -1.28885 88.787 -14.4626 -0.912645 -0.165392 72.1724 6.00202 -2.59736 15.5411 -9.48445 6.57543 172.711 -1.73835 88.7891 -13.0423 -9.55881 -0.34322 68.3551 -5.15143 1.20304 24.0111 0.748806 4.85364 0.453991 7.31967 -90.0951 12.2361 0.857332 -0.285407 0.565352 0.843947 -0.322872 -21.9721 0.903469 -0.0145321 -1.95943 0.903472 -0.0145301 92.6705 -26.8563 -102.435 45.446 -23.3617 -7.28509 -13.8905 -17.9227 -24.9669 -10.2958 -0.130379 -3.86391 -86.5905 -47.5636 83.4493 -24.3577 32.1702 -16.666 5.01763 -6.90364 -9.15146 1.00713 -0.0984596 -4.63429 6.80166 -1.03123 -1.2411 -7.21456 -0.824458 1.71657 
26.3042 100.968 24.3824 -132.25 -82.7886 -132.528 -173.57 -1.45849 89.1198 -14.274 -1.04305 -0.34309 72.3446 6.06412 -2.96431 15.4453 -9.88336 7.1569 172.991 -1.74045 89.1019 -13.2576 -9.50148 -0.500481 68.4358 -5.10598 1.15544 23.7743 0.861209 4.79957 0.462987 7.30499 -90.0886 12.2652 0.878179 -0.275534 0.594562 0.865211 -0.313929 -21.943 0.920388 0.00116194 -1.93032 0.920393 0.00115658 92.3065 -27.1768 -103.091 45.3169 -23.2143 -7.24648 -13.6285 -17.1387 -24.9403 -10.3626 -0.154851 -3.59619 -86.2932 -47.1462 83.8425 -24.3457 32.7825 -16.6884 4.97535 -6.25985 -9.13655 0.155077 -0.0962943 -5.03409 6.74757 -0.93315 -1.72211 -6.99558 -0.635873 1.8963 
26.4104 100.922 24.5274 -131.385 -83.0079 -132.103 -173.959 -1.43033 88.4767 -14.0471 -1.35432 -0.220955 72.1779 6.093 -2.83001 15.3347 -9.73255 6.80389 172.638 -1.11604 88.4561 -13.7898 -9.97425 -0.44252 68.2463 -4.81753 1.70866 24.655 0.661915 4.23384 0.461538 7.28281 -90.0935 12.3097 0.880951 -0.285146 0.638981 0.8595 -0.323294 -21.8985 0.918232 -0.00960091 -1.88589 0.918237 -0.00959661 92.5526 -26.7004 -102.737 45.5683 -22.9988 -7.29518 -13.1099 -16.6337 -24.4001 -13.0392 -0.152477 -3.97934 -86.6696 -48.3414 83.4557 -23.5065 32.9348 -16.5431 4.71312 -7.1154 -9.32558 0.58177 -0.0976099 -4.59382 6.61417 -1.02841 -0.881282 -6.85634 -0.882731 1.49805 
26.4284 100.899 24.6581 -130.653 -83.0119 -131.639 -174.038 -1.55427 88.2016 -13.8943 -1.38771 -0.304922 72.1136 6.16583 -2.64811 15.6459 -9.52852 6.74467 172.558 -0.912721 88.2014 -14.174 -9.77058 -0.526983 68.7952 -5.13237 1.60327 24.2151 0.688522 4.77333 0.448835 7.27906 -90.0309 12.3167 0.8769 -0.160819 0.646021 0.869424 -0.19929 -21.8915 0.885118 0.110314 -1.87885 0.885125 0.110316 92.4475 -27.0749 -102.83 45.4471 -22.9892 -7.29482 -13.0669 -16.0483 -24.4117 -11.1453 -0.0933973 -4.38222 -86.4383 -47.6709 83.7024 -24.4628 32.1278 -16.4411 5.15956 -6.09688 -9.29043 -0.0540699 -0.0975062 -4.6965 6.49042 -1.07468 -1.53019 -6.83654 -0.80825 1.70949 
26.411 100.885 24.8409 -130.478 -83.0867 -131.347 -174.04 -1.51859 88.311 -14.0765 -1.51145 -0.220638 72.307 6.14212 -3.00289 15.9324 -9.6319 7.18146 172.574 -1.26614 88.2994 -13.622 -9.85145 -0.477157 68.6979 -5.16745 1.44123 24.4594 0.660712 4.52009 0.444106 7.28163 -90.0566 12.3117 0.855751 -0.209562 0.641012 0.845697 -0.247029 -21.8964 0.87917 0.0573381 -1.88377 0.879171 0.0573343 92.5743 -26.9343 -102.611 45.4416 -23.2611 -7.36587 -13.3224 -16.8291 -24.456 -10.4608 -0.113821 -4.08945 -86.5115 -47.7746 83.6062 -24.47 31.6259 -16.6591 5.22954 -6.28566 -9.04318 0.866154 -0.0892203 -4.30798 6.48232 -0.956975 -1.13275 -7.01079 -0.759669 1.28282 
26.3569 100.919 25.0425 -131.772 -82.9892 -132.714 -173.944 -2.16252 88.3407 -13.3986 -1.34184 -0.306436 72.1515 6.3077 -2.82322 15.7862 -9.57381 6.94906 172.519 -1.35895 88.2218 -14.0686 -9.9146 -0.540143 68.605 -4.86749 1.70082 24.7214 0.677542 4.081 0.439258 7.30711 -90.0674 12.2608 0.841089 -0.229012 0.590074 0.830205 -0.265813 -21.9473 0.871028 0.034383 -1.93463 0.871035 0.0343855 92.7194 -26.734 -102.374 45.444 -23.3394 -7.41612 -13.3621 -17.1665 -24.4446 -10.6864 -0.158781 -3.59988 -86.5605 -47.9761 83.5633 -23.9156 32.0603 -16.6924 4.58791 -9.05632 -9.28977 3.52155 -0.0396498 -3.38168 6.51269 -0.874155 -0.932121 -7.07113 -0.726714 1.55676 
26.3542 100.881 25.0107 -126.963 -83.0022 -127.751 -174.013 -1.49153 88.3685 -13.7994 -1.81277 -0.222818 72.3421 6.22516 -2.88948 15.9239 -9.61155 7.13874 172.638 -1.16829 88.4087 -13.4477 -10.4052 -0.462492 68.4507 -4.98241 1.44649 24.7689 0.680088 4.00251 0.49384 7.26408 -90.084 12.3472 0.941571 -0.274432 0.67658 0.928575 -0.315615 -21.8613 0.980513 0.0212667 -1.84868 0.980511 0.021264 92.8556 -26.8237 -102.055 45.4055 -23.5244 -7.56558 -13.4061 -17.474 -24.415 -10.2031 -0.0980851 -4.23974 -86.6873 -48.1081 83.3902 -23.8548 31.6515 -16.8991 4.80565 -8.29137 -8.88016 1.77268 -0.114442 -4.98889 6.81468 -1.00711 -1.10464 -7.21246 -0.825992 1.66037 
26.3188 100.897 25.1868 -127.127 -83.1125 -128.009 -174.028 -1.68352 88.2993 -13.5215 -1.53453 -0.25466 72.212 6.29147 -2.66022 15.8468 -9.5862 7.02391 172.53 -1.25947 88.3079 -13.4049 -10.0863 -0.421166 68.8308 -5.20579 1.2805 23.9935 0.768299 4.8068 0.466442 7.25051 -90.0679 12.3741 0.894699 -0.237238 0.703458 0.883389 -0.276394 -21.8342 0.924638 0.0426487 -1.82151 0.924629 0.042638 92.8254 -26.7481 -102.145 45.5735 -23.5293 -7.58138 -12.7144 -15.9775 -24.033 -11.4278 -0.0687775 -4.66402 -86.5292 -47.7436 83.5738 -24.6678 30.7722 -16.6857 5.46041 -6.10927 -8.50309 0.61801 -0.0825399 -4.17268 6.67962 -1.10043 -1.11205 -7.11786 -0.90607 1.35116 
26.319 100.893 25.3567 -128.648 -83.0808 -129.426 -173.876 -1.96362 88.486 -13.5251 -1.41074 -0.311752 72.3498 6.36694 -2.75 16.1142 -9.49488 7.11693 172.432 -1.66377 88.3176 -13.1332 -10.1146 -0.337039 68.5983 -5.06394 1.31672 24.5595 0.507438 4.9163 0.449517 7.27024 -90.0868 12.3347 0.852134 -0.26981 0.663989 0.839433 -0.307068 -21.8734 0.89382 -0.00121484 -1.86075 0.893821 -0.0012224 92.8052 -26.7759 -102.178 45.417 -23.5561 -7.71675 -12.2714 -15.2202 -23.6474 -11.8595 -0.0835026 -4.52567 -86.523 -47.8375 83.5988 -24.6602 30.8088 -16.4657 5.47485 -6.0143 -8.63725 0.389697 -0.0845457 -4.16022 6.53524 -1.06956 -1.30357 -6.78406 -0.840445 1.52174 
26.3532 100.859 25.2758 -124.661 -83.1437 -125.605 -174.061 -1.507 88.2055 -13.517 -1.8658 -0.281501 72.3604 6.34585 -2.83483 15.7648 -9.76284 7.24781 172.479 -1.07007 88.1793 -13.2054 -10.2458 -0.383409 68.3469 -4.80564 2.00849 25.3269 0.427538 4.07775 0.471273 7.24266 -90.0711 12.3899 0.902767 -0.244805 0.719193 0.891128 -0.284308 -21.8185 0.934599 0.037853 -1.80583 0.934602 0.0378518 92.7308 -26.8811 -102.3 45.3083 -23.3344 -7.53392 -13.1164 -16.4167 -24.4239 -11.1354 -0.0568615 -4.77091 -86.6208 -47.894 83.4571 -24.5309 30.8197 -16.1373 5.63759 -5.68796 -9.21482 0.00560764 -0.0981245 -4.73586 6.93242 -0.740615 -1.36344 -7.25814 -0.529968 2.19793 
26.4304 100.907 25.3671 -124.187 -82.9966 -125.211 -174.247 -1.85565 87.9639 -13.0267 -2.22358 -0.144853 72.0868 6.25521 -2.97506 16.045 -9.64634 7.30951 172.294 -0.918357 88.029 -13.8764 -10.4593 -0.334503 69.0225 -5.24325 1.2116 23.8504 0.774679 4.99214 0.456416 7.26964 -90.1195 12.336 0.850316 -0.334948 0.665299 0.834748 -0.37206 -21.8721 0.911663 -0.0638908 -1.85942 0.911661 -0.0638995 92.6717 -26.455 -102.568 45.3079 -23.233 -7.22069 -13.1774 -15.9517 -24.6375 -10.6637 -0.0735241 -4.56635 -86.7212 -48.3263 83.3741 -24.5693 30.4188 -15.6786 5.46602 -6.80368 -9.28802 0.912556 -0.0988188 -4.34826 8.00218 1.0718 0.836204 -7.60295 0.821143 1.52483 
26.4188 100.905 25.4306 -124.262 -82.8983 -125.125 -174.065 -1.80581 88.1898 -13.3512 -2.12439 -0.231531 72.313 6.28629 -2.98354 15.8661 -9.68187 7.20538 172.353 -1.24215 88.1355 -13.2953 -10.5759 -0.318596 68.7028 -5.11743 1.43753 24.272 0.68142 4.71633 0.485947 7.2846 -90.1342 12.3064 0.902096 -0.369764 0.635697 0.884952 -0.409123 -21.9019 0.971516 -0.0815248 -1.88928 0.97152 -0.0815361 92.6854 -26.7141 -102.452 45.1637 -23.2038 -6.91954 -12.9319 -15.8104 -24.3916 -11.0505 -0.104821 -4.24285 -86.8495 -48.2255 83.1605 -24.5362 30.1451 -15.695 5.53552 -6.58802 -8.91162 0.890214 -0.0937262 -4.487 8.43523 2.75314 1.70964 -7.54482 2.25787 2.22737 
